<svg width="518" height="433" viewBox="0 0 518 433" fill="none" xmlns="http://www.w3.org/2000/svg">
<circle cx="26.3466" cy="26.3466" r="26.3466" fill="#FF7F11"/>
<circle cx="104.241" cy="26.3466" r="26.3466" fill="#8C8C8C" fill-opacity="0.2"/>
<circle cx="182.135" cy="26.3466" r="26.3466" fill="#8C8C8C" fill-opacity="0.2"/>
<circle cx="260.029" cy="26.3466" r="26.3466" fill="#8C8C8C" fill-opacity="0.2"/>
<circle cx="337.923" cy="26.3466" r="26.3466" fill="#8C8C8C" fill-opacity="0.2"/>
<circle cx="415.817" cy="26.3466" r="26.3466" fill="#8C8C8C" fill-opacity="0.2"/>
<circle cx="491.421" cy="26.3466" r="26.3466" fill="#CFDCDE"/>
<circle cx="26.3466" cy="101.95" r="26.3466" fill="#FF7F11"/>
<circle cx="104.241" cy="101.95" r="26.3466" fill="#8C8C8C" fill-opacity="0.2"/>
<circle cx="182.135" cy="101.95" r="26.3466" fill="#8C8C8C" fill-opacity="0.2"/>
<circle cx="260.029" cy="101.95" r="26.3466" fill="#8C8C8C" fill-opacity="0.2"/>
<circle cx="337.923" cy="101.95" r="26.3466" fill="#8C8C8C" fill-opacity="0.2"/>
<circle cx="415.817" cy="101.95" r="26.3466" fill="#FF7F11"/>
<circle cx="491.421" cy="101.95" r="26.3466" fill="#CFDCDE"/>
<circle cx="26.3466" cy="177.553" r="26.3466" fill="#FF7F11"/>
<circle cx="104.241" cy="177.553" r="26.3466" fill="#8C8C8C" fill-opacity="0.2"/>
<circle cx="182.135" cy="177.553" r="26.3466" fill="#8C8C8C" fill-opacity="0.2"/>
<circle cx="260.029" cy="177.553" r="26.3466" fill="#FF7F11"/>
<circle cx="337.923" cy="177.553" r="26.3466" fill="#8C8C8C" fill-opacity="0.2"/>
<circle cx="415.817" cy="177.553" r="26.3466" fill="#FF7F11"/>
<circle cx="491.421" cy="177.553" r="26.3466" fill="#B91372"/>
<circle cx="26.3466" cy="253.156" r="26.3466" fill="#FF7F11"/>
<circle cx="104.241" cy="253.156" r="26.3466" fill="#8C8C8C" fill-opacity="0.2"/>
<circle cx="182.135" cy="253.156" r="26.3466" fill="#FF7F11"/>
<circle cx="260.029" cy="253.156" r="26.3466" fill="#8C8C8C" fill-opacity="0.2"/>
<circle cx="337.923" cy="253.156" r="26.3466" fill="#8C8C8C" fill-opacity="0.2"/>
<circle cx="415.817" cy="253.156" r="26.3466" fill="#FF7F11"/>
<circle cx="491.421" cy="253.156" r="26.3466" fill="#B91372"/>
<circle cx="26.3466" cy="331.05" r="26.3466" fill="#8C8C8C" fill-opacity="0.2"/>
<circle cx="104.241" cy="331.05" r="26.3466" fill="#FF7F11"/>
<circle cx="182.135" cy="331.05" r="26.3466" fill="#8C8C8C" fill-opacity="0.2"/>
<circle cx="260.029" cy="331.05" r="26.3466" fill="#8C8C8C" fill-opacity="0.2"/>
<circle cx="337.923" cy="331.05" r="26.3466" fill="#8C8C8C" fill-opacity="0.2"/>
<circle cx="415.817" cy="331.05" r="26.3466" fill="#FF7F11"/>
<circle cx="491.421" cy="331.05" r="26.3466" fill="#B91372"/>
<circle cx="26.3466" cy="406.653" r="26.3466" fill="#FF7F11"/>
<circle cx="104.241" cy="406.653" r="26.3466" fill="#8C8C8C" fill-opacity="0.2"/>
<circle cx="182.135" cy="406.653" r="26.3466" fill="#8C8C8C" fill-opacity="0.2"/>
<circle cx="260.029" cy="406.653" r="26.3466" fill="#B91372"/>
<circle cx="337.923" cy="406.653" r="26.3466" fill="#B91372"/>
<circle cx="415.817" cy="406.653" r="26.3466" fill="#B91372"/>
<circle cx="491.421" cy="406.653" r="26.3466" fill="#B91372"/>
</svg>
